<svg width="373" height="61" viewBox="0 0 373 61" fill="none" xmlns="http://www.w3.org/2000/svg">
    <path d="M89.5132 27.5882V5.33428H98.0039C100.078 5.33428 101.799 6.0022 103.155 7.33804C104.521 8.67388 105.209 10.3336 105.209 12.3272C105.209 14.3208 104.521 15.9805 103.155 17.3164C101.789 18.6522 100.068 19.3201 98.0039 19.3201H91.9218V27.5882H89.5132ZM91.9117 17.0937H97.9938C99.4511 17.0937 100.605 16.6586 101.485 15.7882C102.366 14.9179 102.801 13.7642 102.801 12.3272C102.801 10.8902 102.366 9.72636 101.485 8.86616C100.615 7.99584 99.4511 7.56068 97.9938 7.56068H91.9117V17.1038V17.0937Z" fill="white"/>
    <path d="M110.978 27.5882V5.33428H113.376V23.2973L127.149 5.33428H129.234V27.5882H126.836V9.62516L113.062 27.5882H110.978Z" fill="white"/>
    <path d="M154.362 21.8602L155.961 23.2872C155.212 24.2182 154.423 24.9974 153.593 25.6046C151.498 27.1328 149.191 27.8918 146.671 27.8918C143.473 27.8918 140.751 26.7786 138.504 24.5522C136.268 22.3258 135.144 19.6237 135.144 16.446C135.144 13.2684 136.268 10.5663 138.504 8.33992C140.751 6.11352 143.463 5.00032 146.671 5.00032C149.171 5.00032 151.458 5.76944 153.522 7.3178C154.423 7.99584 155.172 8.75484 155.799 9.60492L154.2 11.0318C153.664 10.2931 153.047 9.65552 152.338 9.12928C150.739 7.85416 148.847 7.2166 146.671 7.2166C144.111 7.2166 141.945 8.09704 140.184 9.86804C138.423 11.639 137.543 13.825 137.543 16.4359C137.543 19.0469 138.423 21.2328 140.184 23.0038C141.945 24.7748 144.111 25.6552 146.671 25.6552C148.867 25.6552 150.79 25.0177 152.439 23.7426C153.168 23.1961 153.806 22.5585 154.362 21.84V21.8602Z" fill="white"/>
    <path d="M158.532 27.5882L167.822 5.33428H170.068L179.359 27.5882H176.798L174.238 21.3846H163.673L161.112 27.5882H158.532ZM164.614 19.1582H173.256L168.935 8.66376L164.614 19.1582Z" fill="white"/>
    <path d="M183.983 27.5882V5.33428H186.382V15.1912H198.87V5.33428H201.268V27.5882H198.87V17.4176H186.382V27.5882H183.983Z" fill="white"/>
    <path d="M89.5132 35.3907H105.725V40.6328H95.5549V43.0212H99.8457C102.194 43.0212 104.106 43.7194 105.584 45.1059C107.061 46.4923 107.79 48.233 107.79 50.3379C107.79 52.4429 107.051 54.1835 105.584 55.57C104.106 56.9564 102.194 57.6547 99.8457 57.6547H89.5132V35.3907ZM95.5549 52.4024H99.532C100.17 52.4024 100.696 52.2 101.121 51.7952C101.546 51.3904 101.758 50.9046 101.758 50.3278C101.758 49.751 101.546 49.2652 101.121 48.8604C100.696 48.4556 100.17 48.2532 99.532 48.2532H95.5549V52.4024Z" fill="white"/>
    <path d="M111.929 57.6446V35.3907H128.941V40.7948H117.971V43.9724H126.401V49.0628H117.971V52.2405H129.254V57.6446H111.929Z" fill="white"/>
    <path d="M130.853 54.4669L134.355 50.6516C134.699 51.0767 135.134 51.4208 135.691 51.7041C136.834 52.3822 138.089 52.7161 139.445 52.7161C140.508 52.7161 141.297 52.534 141.834 52.1595C142.36 51.7851 142.633 51.3398 142.633 50.8034C142.633 50.2671 142.38 49.8218 141.884 49.4474C141.388 49.0729 140.68 48.8908 139.769 48.8908H136.905V43.8004H139.293C140.204 43.8004 140.882 43.6385 141.328 43.3248C141.773 43.011 141.996 42.586 141.996 42.0496C141.996 40.8858 141.044 40.2989 139.132 40.2989C138.221 40.2989 137.259 40.562 136.237 41.0984C135.924 41.2704 135.559 41.5335 135.154 41.8978L131.653 38.0826C132.29 37.445 133.009 36.8986 133.819 36.433C135.64 35.3097 137.674 34.7531 139.921 34.7531C142.593 34.7531 144.687 35.3704 146.216 36.6152C147.744 37.86 148.503 39.3577 148.503 41.1186C148.503 42.667 147.835 43.9421 146.499 44.9338C145.922 45.3386 145.274 45.6524 144.526 45.8851C145.416 46.1786 146.175 46.5733 146.813 47.059C148.361 48.2228 149.13 49.6902 149.13 51.4511C149.13 53.384 148.321 55.0032 146.701 56.3188C145.082 57.6344 142.815 58.2922 139.911 58.2922C137.472 58.2922 135.245 57.6547 133.232 56.3897C132.321 55.8432 131.521 55.2056 130.843 54.4871L130.853 54.4669Z" fill="white"/>
    <path d="M155.698 54.8616C153.33 52.5846 152.156 49.8016 152.156 46.5126C152.156 43.2236 153.34 40.4406 155.698 38.1636C158.056 35.8866 161.011 34.743 164.553 34.743C168.095 34.743 171.04 35.8866 173.408 38.1636C175.776 40.4406 176.95 43.2236 176.95 46.5126C176.95 49.8016 175.766 52.5846 173.408 54.8616C171.04 57.1386 168.095 58.2821 164.553 58.2821C161.011 58.2821 158.056 57.1487 155.698 54.8616ZM160.151 42.1104C158.957 43.3045 158.349 44.7719 158.349 46.5126C158.349 48.2532 158.947 49.7206 160.151 50.9148C161.345 52.1089 162.812 52.7161 164.553 52.7161C166.294 52.7161 167.761 52.119 168.955 50.9148C170.149 49.7206 170.757 48.2532 170.757 46.5126C170.757 44.7719 170.159 43.3045 168.955 42.1104C167.761 40.9162 166.294 40.309 164.553 40.309C162.812 40.309 161.345 40.9061 160.151 42.1104Z" fill="white"/>
    <path d="M181.413 57.6446V35.3907H201.289V57.6446H195.247V41.1085H187.455V57.6446H181.413Z" fill="white"/>
    <path d="M204.304 57.6446L212.734 35.3907H219.414L227.843 57.6446H221.326L219.737 52.878H212.421L210.832 57.6446H204.304ZM213.999 47.9496H218.138L216.135 41.5942H216.003L213.999 47.9496Z" fill="white"/>
    <path d="M247.385 49.8522L251.039 53.9811C250.32 54.811 249.49 55.5295 248.559 56.1468C246.484 57.5636 244.076 58.272 241.344 58.272C237.802 58.272 234.857 57.1386 232.489 54.8514C230.12 52.5744 228.947 49.7914 228.947 46.5024C228.947 43.2134 230.131 40.4304 232.489 38.1534C234.857 35.8764 237.802 34.7329 241.344 34.7329C244.015 34.7329 246.404 35.4514 248.498 36.8986C249.429 37.5564 250.229 38.2648 250.887 39.0238L247.233 43.1527C246.748 42.6265 246.201 42.1508 245.614 41.7258C244.238 40.7745 242.821 40.2989 241.354 40.2989C239.613 40.2989 238.146 40.896 236.951 42.1002C235.757 43.2944 235.15 44.7618 235.15 46.5024C235.15 48.2431 235.747 49.7105 236.951 50.9046C238.146 52.0988 239.613 52.706 241.354 52.706C242.791 52.706 244.238 52.2304 245.675 51.2791C246.312 50.854 246.879 50.3784 247.395 49.8522H247.385Z" fill="white"/>
    <path d="M254.854 57.6446V35.3907H260.895V43.4968H269.001V35.3907H275.043V57.6446H269.001V49.2146H260.895V57.6446H254.854Z" fill="white"/>
    <path d="M283.048 54.8616C280.68 52.5846 279.506 49.8016 279.506 46.5126C279.506 43.2236 280.69 40.4406 283.048 38.1636C285.416 35.8866 288.361 34.743 291.903 34.743C295.445 34.743 298.39 35.8866 300.758 38.1636C303.116 40.4406 304.3 43.2236 304.3 46.5126C304.3 49.8016 303.116 52.5846 300.758 54.8616C298.39 57.1386 295.445 58.2821 291.903 58.2821C288.361 58.2821 285.406 57.1487 283.048 54.8616ZM287.501 42.1104C286.307 43.3045 285.699 44.7719 285.699 46.5126C285.699 48.2532 286.297 49.7206 287.501 50.9148C288.695 52.1089 290.162 52.7161 291.903 52.7161C293.644 52.7161 295.111 52.119 296.305 50.9148C297.499 49.7206 298.096 48.2532 298.096 46.5126C298.096 44.7719 297.499 43.3045 296.305 42.1104C295.111 40.9162 293.644 40.309 291.903 40.309C290.162 40.309 288.695 40.9061 287.501 42.1104Z" fill="white"/>
    <path d="M325.926 49.8522L329.58 53.9811C328.861 54.811 328.031 55.5295 327.1 56.1468C325.026 57.5636 322.617 58.272 319.885 58.272C316.343 58.272 313.388 57.1386 311.03 54.8514C308.662 52.5744 307.488 49.7914 307.488 46.5024C307.488 43.2134 308.672 40.4304 311.03 38.1534C313.398 35.8764 316.343 34.7329 319.885 34.7329C322.557 34.7329 324.945 35.4514 327.04 36.8986C327.971 37.5564 328.77 38.2648 329.428 39.0238L325.775 43.1527C325.289 42.6265 324.742 42.1508 324.155 41.7258C322.779 40.7745 321.362 40.2989 319.895 40.2989C318.154 40.2989 316.687 40.896 315.493 42.1002C314.299 43.3045 313.691 44.7618 313.691 46.5024C313.691 48.2431 314.288 49.7105 315.493 50.9046C316.687 52.0988 318.154 52.706 319.895 52.706C321.332 52.706 322.779 52.2304 324.216 51.2791C324.854 50.854 325.421 50.3784 325.937 49.8522H325.926Z" fill="white"/>
    <path d="M337.686 57.6446V40.7948H331.482V35.3907H349.921V40.7948H343.717V57.6446H337.676H337.686Z" fill="white"/>
    <path d="M353.746 57.6446V35.3907H359.788V42.0699H363.765C366.204 42.0699 368.188 42.8086 369.726 44.276C371.264 45.7536 372.033 47.6055 372.033 49.8522C372.033 52.0988 371.264 53.9609 369.726 55.4283C368.188 56.9058 366.204 57.6344 363.765 57.6344H353.746V57.6446ZM359.788 52.2405H363.441C364.14 52.2405 364.737 51.9976 365.243 51.522C365.739 51.0463 365.992 50.4897 365.992 49.8522C365.992 49.2146 365.739 48.658 365.243 48.1824C364.747 47.7067 364.15 47.4638 363.441 47.4638H359.788V52.2405Z" fill="white"/>
    <path d="M47.4747 0.891602V13.2987H12.5V48.2734H0.103027V0.891602H47.4747Z" fill="#D63417"/>
    <path d="M59.8819 13.2987V60.6704H12.5V48.2734H47.4747V13.2987H59.8819Z" fill="#D63417"/>
</svg>
