<svg width="82" height="64" viewBox="0 0 82 64" fill="none" xmlns="http://www.w3.org/2000/svg">
    <g clip-path="url(#clip0_22_267)">
        <mask id="mask0_22_267" style="mask-type:alpha" maskUnits="userSpaceOnUse" x="0" y="0" width="82" height="64">
            <path d="M82 0H0V64H82V0Z" fill="white"/>
        </mask>
        <g mask="url(#mask0_22_267)">
            <path d="M81.9317 21.1989C81.7886 20.7936 81.4405 20.4949 81.0177 20.416L26.7418 10.3424C24.6982 9.96476 22.7272 11.3152 22.3493 13.3568L20.4744 23.4453C20.0943 25.4869 21.4481 27.456 23.4917 27.8357L23.5729 27.8506L23.323 29.1925C22.9429 31.2341 24.2968 33.2032 26.3404 33.5829L28.2473 33.937V38.9056C27.4486 39.7994 26.9639 40.9749 26.9639 42.2634C26.9639 43.2341 27.2394 44.1408 27.7177 44.9109H7.53802V44.8277C7.53802 42.752 5.84677 41.0624 3.76901 41.0624H1.2001C0.53599 41.0624 0 41.6 0 42.2613V62.7818C0 63.4453 0.538125 63.9808 1.2001 63.9808H3.76687C5.84677 63.9808 7.53589 62.2912 7.53589 60.2154V55.0016H26.8785C30.372 55.0016 33.2143 52.1621 33.2143 48.672V47.1616C35.4223 46.6218 37.0666 44.6293 37.0666 42.2592C37.0666 40.9706 36.5818 39.7952 35.7832 38.9013V35.3322L71.7799 42.0138C72.0127 42.0565 72.2411 42.0778 72.4696 42.0778C74.2506 42.0778 75.8372 40.8085 76.1746 38.9994L78.594 25.9861L81.7096 22.3765C81.9915 22.0522 82.0747 21.6 81.9338 21.1968L81.9317 21.1989ZM5.13568 60.2176C5.13568 60.9706 4.52281 61.5829 3.76901 61.5829H2.40234V43.4624H3.76901C4.52281 43.4624 5.13568 44.0746 5.13568 44.8277V60.2176ZM30.8119 48.6741C30.8119 50.8416 29.0459 52.6058 26.8785 52.6058H7.53802V47.3109H30.8119V48.6762V48.6741ZM32.012 44.9088C30.5514 44.9088 29.362 43.7205 29.362 42.2613C29.362 40.8021 30.5514 39.6138 32.012 39.6138C33.4727 39.6138 34.6621 40.8021 34.6621 42.2613C34.6621 43.7205 33.4727 44.9088 32.012 44.9088ZM30.6454 37.4016V34.3808L33.3787 34.8885V37.4037C32.9431 37.2821 32.4861 37.2138 32.012 37.2138C31.538 37.2138 31.081 37.2821 30.6454 37.4037V37.4016ZM69.6829 32.6314C69.0701 33.3418 68.1155 33.6768 67.193 33.504L34.0257 27.3472C33.3744 27.2256 32.7466 27.6565 32.6249 28.3072C32.5032 28.9578 32.9345 29.585 33.5858 29.7066L66.7531 35.8634C67.0585 35.921 67.3639 35.9466 67.6692 35.9466C69.1234 35.9466 70.5349 35.3152 71.5023 34.1973L75.4763 29.5936L73.8085 38.56C73.6719 39.3002 72.9565 39.7909 72.2155 39.6522L26.776 31.2192C26.4172 31.153 26.1055 30.9504 25.8983 30.6496C25.6912 30.3488 25.6143 29.9861 25.6805 29.6277L25.9304 28.2858L28.5356 28.7701C29.1869 28.8917 29.8147 28.4608 29.9364 27.8101C30.0581 27.1594 29.6268 26.5322 28.9755 26.4106L23.9273 25.4741C23.5686 25.408 23.2568 25.2053 23.0497 24.9045C22.8426 24.6037 22.7657 24.241 22.8319 23.8826L24.7089 13.7941C24.7751 13.4357 24.978 13.1242 25.2791 12.9173C25.5802 12.7104 25.9432 12.6336 26.3019 12.6997L78.5214 22.3914L69.6829 32.6272V32.6314Z" fill="white"/>
        </g>
        <path d="M25.5929 5.14771C20.6836 5.14771 16.6882 9.13917 16.6882 14.0437C16.6882 14.7072 17.2264 15.2426 17.8883 15.2426C18.5503 15.2426 19.0884 14.705 19.0884 14.0437C19.0884 10.4618 22.0054 7.54771 25.5908 7.54771C26.2549 7.54771 26.7909 7.01011 26.7909 6.34877C26.7909 5.68744 26.2528 5.14984 25.5908 5.14984L25.5929 5.14771Z" fill="white"/>
        <path d="M12.7548 15.2448C13.4189 15.2448 13.957 14.7072 13.957 14.0458C13.957 7.63516 19.1781 2.41916 25.5951 2.41916C26.2592 2.41916 26.7952 1.88156 26.7952 1.22023C26.7952 0.558898 26.257 0.019165 25.5929 0.019165C17.852 0.019165 11.5547 6.31037 11.5547 14.0437C11.5547 14.7072 12.0928 15.2426 12.7548 15.2426V15.2448Z" fill="white"/>
    </g>
    <defs>
        <clipPath id="clip0_22_267">
            <rect width="82" height="64" fill="white"/>
        </clipPath>
    </defs>
</svg>
